<svg width="80" height="76" viewBox="0 0 80 76" fill="none" xmlns="http://www.w3.org/2000/svg">
<path d="M0 45.6002C0 46.9993 1.19391 48.1335 2.66667 48.1335H32C32.7364 48.1335 33.3333 47.5664 33.3333 46.8668C33.3333 46.1673 32.7364 45.6002 32 45.6002H2.66667V16.4668C2.66667 15.7673 2.06971 15.2002 1.33333 15.2002C0.596954 15.2002 0 15.7673 0 16.4668V45.6002Z" fill="white"/>
<path d="M0 10.1333C0 10.8329 0.596954 11.4 1.33333 11.4C2.06971 11.4 2.66667 10.8329 2.66667 10.1333V2.53333H69.3333V19C69.3333 19.6996 69.9303 20.2667 70.6667 20.2667C71.403 20.2667 72 19.6996 72 19V2.53333C72 1.13421 70.8061 0 69.3333 0H2.66667C1.19391 0 0 1.13421 0 2.53333V10.1333Z" fill="white"/>
<path d="M7.99935 8.86683C8.73573 8.86683 9.33268 8.29973 9.33268 7.60017C9.33268 6.90061 8.73573 6.3335 7.99935 6.3335C7.26297 6.3335 6.66602 6.90061 6.66602 7.60017C6.66602 8.29973 7.26297 8.86683 7.99935 8.86683Z" fill="white"/>
<path d="M13.3333 8.86683C14.0697 8.86683 14.6667 8.29973 14.6667 7.60017C14.6667 6.90061 14.0697 6.3335 13.3333 6.3335C12.597 6.3335 12 6.90061 12 7.60017C12 8.29973 12.597 8.86683 13.3333 8.86683Z" fill="white"/>
<path d="M18.6663 8.86683C19.4027 8.86683 19.9997 8.29973 19.9997 7.60017C19.9997 6.90061 19.4027 6.3335 18.6663 6.3335C17.93 6.3335 17.333 6.90061 17.333 7.60017C17.333 8.29973 17.93 8.86683 18.6663 8.86683Z" fill="white"/>
<path d="M7.05737 31.2957C7.57804 31.7902 8.42204 31.7902 8.94271 31.2957L17.3334 23.3246L21.724 27.4957C22.2447 27.9902 23.0887 27.9902 23.6094 27.4957L33.3334 18.2579L37.724 22.429C38.2447 22.9235 39.0887 22.9235 39.6094 22.429L50.6667 11.9246L55.0574 16.0957C55.578 16.5902 56.422 16.5902 56.9427 16.0957L64.9427 8.49566C65.2893 8.17764 65.4283 7.70669 65.3063 7.26382C65.1843 6.82096 64.8202 6.4751 64.354 6.35918C63.8879 6.24326 63.3921 6.37532 63.0574 6.7046L56 13.4091L51.6094 9.23793C51.0887 8.74345 50.2447 8.74345 49.724 9.23793L38.6667 19.7424L34.276 15.5713C33.7554 15.0768 32.9114 15.0768 32.3907 15.5713L22.6667 24.8091L18.276 20.638C17.7554 20.1435 16.9114 20.1435 16.3907 20.638L7.05737 29.5046C6.53686 29.9993 6.53686 30.8011 7.05737 31.2957Z" fill="white"/>
<path d="M57.3335 19C49.384 18.9929 42.0128 22.9463 37.9122 29.4161C33.8117 35.8859 33.5824 43.9245 37.3082 50.5957L32.3242 55.3318C31.8024 55.8264 31.8016 56.6291 32.3222 57.1248C32.8428 57.6204 33.6878 57.6212 34.2095 57.1267L38.7428 52.82C40.2809 54.9142 42.1961 56.734 44.4002 58.1957L29.4975 72.3558C27.9327 73.8291 25.4113 73.8319 23.8428 72.3621C22.2779 70.8768 22.2743 68.4683 23.8348 66.9788L29.5015 61.6081C30.0076 61.1118 30.0016 60.3217 29.488 59.8324C28.9744 59.3431 28.1427 59.3351 27.6188 59.8145L21.9442 65.1928C19.3483 67.671 19.3525 71.6773 21.9535 74.1507C24.5632 76.6109 28.7732 76.6109 31.3828 74.1507L46.7415 59.5574C55.075 63.7555 65.2742 62.6119 72.3499 56.686C79.4255 50.7601 81.8986 41.2907 78.5592 32.91C75.2198 24.5293 66.7662 18.9893 57.3335 19ZM57.3335 59.5333C46.2878 59.5333 37.3335 51.0267 37.3335 40.5333C37.3335 30.0399 46.2878 21.5333 57.3335 21.5333C68.3792 21.5333 77.3335 30.0399 77.3335 40.5333C77.321 51.0218 68.374 59.5215 57.3335 59.5333Z" fill="white"/>
<path d="M52.9727 25.9121C46.0966 27.777 41.3499 33.74 41.334 40.5332C41.334 41.2328 41.9309 41.7999 42.6673 41.7999C43.4037 41.7999 44.0007 41.2328 44.0007 40.5332C44.013 34.8738 47.967 29.9056 53.6953 28.3517C54.1541 28.2291 54.5091 27.8833 54.6266 27.4445C54.7442 27.0058 54.6065 26.5408 54.2653 26.2247C53.9241 25.9086 53.4314 25.7895 52.9727 25.9121Z" fill="white"/>
</svg>
