<svg width="42" height="74" viewBox="0 0 42 74" fill="none" xmlns="http://www.w3.org/2000/svg">
<path d="M13.4042 26.48C13.4033 27.0408 13.8817 27.4961 14.4708 27.4952C15.0599 27.4961 15.5374 27.0416 15.5374 26.48C15.5374 25.9201 15.0591 25.4648 14.4708 25.4648C13.8807 25.4648 13.4033 25.9192 13.4042 26.48Z" fill="white"/>
<path d="M14.5504 29.5269C13.9627 29.5695 13.5227 30.0574 13.5675 30.6167C13.7057 32.3406 14.0084 35.5535 14.482 37.706C14.6026 38.255 15.1682 38.607 15.7449 38.4918C16.3238 38.3762 16.6907 37.8367 16.5705 37.2897C16.1048 35.1739 15.803 31.8104 15.6954 30.4624C15.6506 29.9031 15.1378 29.4845 14.5504 29.5269Z" fill="white"/>
<path d="M15.5376 20.3869C15.5368 23.193 17.9219 25.465 20.8713 25.4642C23.8205 25.465 26.2066 23.1944 26.2054 20.3869C26.2054 17.581 23.8202 15.3101 20.8718 15.3101C17.924 15.3101 15.5376 17.5804 15.5376 20.3869ZM24.0719 20.3871C24.0716 20.3874 24.0716 20.3874 24.0716 20.3874C24.0722 22.0712 22.6425 23.4337 20.8713 23.4331C19.1023 23.4337 17.6708 22.0723 17.6717 20.3871C17.6717 18.7034 19.1026 17.3414 20.8718 17.3412C22.6401 17.3412 24.0716 18.7031 24.0719 20.3871Z" fill="white"/>
<path d="M21.9391 72.3268L21.9389 63.3491C21.9391 62.7883 21.4614 62.3335 20.8719 62.3335C20.2829 62.3338 19.8054 62.7883 19.8051 63.3491V72.3266C19.8051 72.8876 20.2829 73.3424 20.8722 73.3424C21.4614 73.3421 21.9389 72.8876 21.9391 72.3268Z" fill="white"/>
<path d="M29.4833 65.1456L29.483 56.1679C29.483 55.6074 29.0052 55.1526 28.4161 55.1523C27.8269 55.1526 27.3494 55.6071 27.3489 56.1681V65.1456C27.3492 65.7064 27.8269 66.1612 28.4161 66.1614C29.0055 66.1609 29.483 65.7064 29.4833 65.1456Z" fill="white"/>
<path d="M13.3282 66.1614C13.9174 66.1611 14.3948 65.7066 14.3951 65.1458V56.1683C14.3951 55.6073 13.9174 55.1525 13.3282 55.1528C12.7387 55.1528 12.2614 55.6073 12.2614 56.1683V65.1458C12.261 65.7066 12.7387 66.1614 13.3282 66.1614Z" fill="white"/>
<path d="M21.6663 0.989685C21.4642 0.774238 21.1747 0.651366 20.8712 0.651367C20.5676 0.651367 20.2773 0.773958 20.076 0.989685C16.4557 4.84303 9.13534 15.3084 9.13534 26.4813C9.13534 28.8804 9.28411 31.2921 9.57449 33.6612C3.94383 37.2596 0.599888 43.2074 0.600098 49.6839C0.600098 51.5034 0.86653 53.3061 1.39204 55.0429C1.68831 56.0211 3.148 56.0163 3.44248 55.0432C4.79345 50.5872 7.96761 46.8562 12.2341 44.6563C12.6048 45.5624 13.0001 46.3891 13.4149 47.1213C13.88 47.9455 14.7415 48.499 15.7294 48.6353C15.6879 48.9975 15.6664 49.3647 15.6664 49.735C15.6664 53.4318 20.0041 58.3125 20.1889 58.5186C20.5939 58.9703 21.3163 58.9953 21.7548 58.5778C21.7745 58.559 21.7937 58.5391 21.8119 58.5189C21.9964 58.313 26.3357 53.4321 26.3359 49.735C26.3359 49.3495 26.3127 48.9672 26.2678 48.5907C27.1626 48.3977 27.9092 47.8633 28.3274 47.123C28.7426 46.39 29.1378 45.5627 29.5089 44.6563C33.7751 46.8559 36.9495 50.5872 38.3005 55.0432C38.5994 56.0295 40.0588 56.0059 40.3506 55.0426C40.8764 53.3061 41.1428 51.5034 41.1428 49.6839C41.1428 43.2076 37.7986 37.2596 32.1682 33.6615C32.4585 31.2919 32.6073 28.8802 32.6073 26.4811C32.6073 20.981 30.9201 15.208 27.5929 9.32169C25.9775 6.37024 23.2982 2.72644 21.6663 0.989685ZM2.79343 51.0956C2.75371 50.6274 2.73365 50.1561 2.73396 49.6839C2.73365 44.2296 5.38619 39.1947 9.8986 35.9369C10.3007 38.3876 10.8518 40.693 11.5208 42.7167C7.73921 44.5887 4.69858 47.5272 2.79343 51.0956ZM24.2021 49.735C24.2021 51.7099 22.3147 54.5478 20.9999 56.2245C19.6858 54.5494 17.8001 51.7144 17.8001 49.735C17.8001 49.3742 17.8256 49.018 17.8742 48.6687H24.1276C24.1765 49.0177 24.2018 49.3739 24.2021 49.735ZM26.4485 46.1599C26.2843 46.4503 25.9266 46.6377 25.5369 46.6377C23.3819 46.6377 17.2369 46.6377 16.2061 46.6377C15.8161 46.6379 15.4584 46.45 15.2935 46.1585C14.8999 45.4639 14.5231 44.6706 14.1695 43.792C16.2962 42.9846 18.5455 42.5756 20.8709 42.575C23.1968 42.5756 25.4462 42.9846 27.5729 43.792C27.2192 44.6706 26.8426 45.4645 26.4485 46.1599ZM39.009 49.6839C39.009 50.1563 38.989 50.6271 38.9489 51.0956C37.0441 47.5269 34.0035 44.5884 30.2218 42.7164C30.8905 40.693 31.4417 38.3876 31.8438 35.9369C36.3568 39.1947 39.0087 44.2296 39.009 49.6839ZM30.4736 26.4811C30.4732 31.4361 29.7962 37.1143 28.2646 41.8689C25.916 40.9906 23.4344 40.5446 20.8709 40.544C18.3077 40.5448 15.8264 40.9906 13.4781 41.8692C11.9464 37.1145 11.2691 31.4361 11.2691 26.4813C11.2691 21.4818 12.7722 16.2112 15.738 10.8062H26.0043C28.9705 16.2109 30.4732 21.4818 30.4736 26.4811ZM24.8235 8.77494L16.919 8.77493C18.476 6.24428 19.9864 4.3162 20.8712 3.25748C21.7559 4.3162 23.2667 6.244 24.8235 8.77494Z" fill="white"/>
</svg>
